<svg width="35" height="35" viewBox="0 0 35 35" fill="none" xmlns="http://www.w3.org/2000/svg">
<path fill-rule="evenodd" clip-rule="evenodd" d="M28.4378 2.18751V6.56251H32.8128V9.47917H28.4378V13.8396C28.4378 13.8396 25.5358 13.8542 25.5212 13.8396V9.47917H21.1462C21.1462 9.47917 21.1608 6.57709 21.1462 6.56251H25.5212V2.18751H28.4378ZM25.5213 29.8958H5.10466V9.47918H18.2297V6.56251H5.10466C3.50049 6.56251 2.18799 7.87501 2.18799 9.47918V29.8958C2.18799 31.5 3.50049 32.8125 5.10466 32.8125H25.5213C27.1255 32.8125 28.438 31.5 28.438 29.8958V16.7708H25.5213V29.8958ZM14.1605 25.2729L11.3021 21.8312L7.29173 26.9791H23.3334L18.1709 20.1104L14.1605 25.2729Z" fill="white"/>
</svg>
