<svg width="35" height="35" viewBox="0 0 35 35" fill="none" xmlns="http://www.w3.org/2000/svg">
<path fill-rule="evenodd" clip-rule="evenodd" d="M21.1462 4.375L22.6045 5.83333H27.7087V8.75H7.29199V5.83333H12.3962L13.8545 4.375H21.1462ZM17.5003 18.3604L20.592 15.2687L22.6482 17.325L19.5566 20.4167L22.6482 23.5083L20.592 25.5646L17.5003 22.4729L14.4087 25.5646L12.3524 23.5083L15.4441 20.4167L12.3378 17.325L14.3941 15.2687L17.5003 18.3604ZM8.75033 27.7083C8.75033 29.3125 10.0628 30.625 11.667 30.625H23.3337C24.9378 30.625 26.2503 29.3125 26.2503 27.7083V10.2083H8.75033V27.7083ZM23.3337 13.125H11.667V27.7083H23.3337V13.125Z" fill="#FF0020"/>
</svg>
